<svg xmlns="http://www.w3.org/2000/svg" viewBox="0 0 400 200" width="400" height="200">
<defs>
  <linearGradient id="g-gold" x1="0" y1="0" x2="1" y2="1"><stop offset="0" stop-color="#EED9A0"/><stop offset=".45" stop-color="#C9A253"/><stop offset="1" stop-color="#8E6E2E"/></linearGradient>
  <linearGradient id="g-silver" x1="0" y1="0" x2="1" y2="1"><stop offset="0" stop-color="#F1F2F4"/><stop offset=".5" stop-color="#B9BDC4"/><stop offset="1" stop-color="#7E848C"/></linearGradient>
  <radialGradient id="g-pearl" cx=".35" cy=".3" r=".8"><stop offset="0" stop-color="#FFFFFF"/><stop offset=".6" stop-color="#F3ECE2"/><stop offset="1" stop-color="#D6CBBE"/></radialGradient>
  <radialGradient id="g-violet" cx=".35" cy=".3" r=".8"><stop offset="0" stop-color="#B58BD3"/><stop offset=".55" stop-color="#6E3C8C"/><stop offset="1" stop-color="#3B1650"/></radialGradient>
  <radialGradient id="g-lilac" cx=".35" cy=".3" r=".8"><stop offset="0" stop-color="#EDE2F4"/><stop offset=".6" stop-color="#B9A4C8"/><stop offset="1" stop-color="#8E77A3"/></radialGradient>
  <radialGradient id="g-plum" cx=".35" cy=".3" r=".8"><stop offset="0" stop-color="#8A5A9E"/><stop offset=".6" stop-color="#4B1D5C"/><stop offset="1" stop-color="#2A0F35"/></radialGradient>
  <radialGradient id="g-shadow" cx=".5" cy=".5" r=".5"><stop offset="0" stop-color="#21102A" stop-opacity=".18"/><stop offset="1" stop-color="#21102A" stop-opacity="0"/></radialGradient>
  <filter id="grain" x="0" y="0" width="100%" height="100%"><feTurbulence type="fractalNoise" baseFrequency=".9" numOctaves="2" stitchTiles="stitch"/><feColorMatrix values="0 0 0 0 .13  0 0 0 0 .06  0 0 0 0 .16  0 0 0 .07 0"/></filter>
  <pattern id="grid" width="40" height="40" patternUnits="userSpaceOnUse"><path d="M40 0H0V40" fill="none" stroke="#B9A4C8" stroke-opacity=".35" stroke-width="1"/></pattern>
</defs><g transform="translate(200 100) scale(2.6)"><path d="M-62.0 -13.0L-60.8 -14.0L-59.3 -15.0L-57.5 -16.0L-55.5 -17.0L-53.2 -17.9L-50.7 -18.8L-47.9 -19.6L-44.9 -20.4L-41.7 -21.1L-38.4 -21.8L-34.8 -22.4L-31.1 -23.0L-27.2 -23.5L-23.3 -23.9L-19.2 -24.3L-15.0 -24.6L-10.8 -24.8L-6.5 -24.9L-2.2 -25.0L2.2 -25.0L6.5 -24.9L10.8 -24.8L15.0 -24.6L19.2 -24.3L23.3 -23.9L27.2 -23.5L31.1 -23.0L34.8 -22.4L38.4 -21.8L41.7 -21.1L44.9 -20.4L47.9 -19.6L50.7 -18.8L53.2 -17.9L55.5 -17.0L57.5 -16.0L59.3 -15.0L60.8 -14.0L62.0 -13.0L62.0 5.0L60.8 4.0L59.3 3.0L57.5 2.0L55.5 1.0L53.2 0.1L50.7 -0.8L47.9 -1.6L44.9 -2.4L41.7 -3.1L38.4 -3.8L34.8 -4.4L31.1 -5.0L27.2 -5.5L23.3 -5.9L19.2 -6.3L15.0 -6.6L10.8 -6.8L6.5 -6.9L2.2 -7.0L-2.2 -7.0L-6.5 -6.9L-10.8 -6.8L-15.0 -6.6L-19.2 -6.3L-23.3 -5.9L-27.2 -5.5L-31.1 -5.0L-34.8 -4.4L-38.4 -3.8L-41.7 -3.1L-44.9 -2.4L-47.9 -1.6L-50.7 -0.8L-53.2 0.1L-55.5 1.0L-57.5 2.0L-59.3 3.0L-60.8 4.0L-62.0 5.0Z" fill="url(#g-silver)" stroke="#7E848C" stroke-width="0.8" stroke-linejoin="round" opacity=".6"/><path d="M64.0 -9.0L63.8 -7.7L63.2 -6.4L62.1 -5.2L60.7 -3.9L58.9 -2.7L56.7 -1.6L54.1 -0.4L51.2 0.6L47.9 1.6L44.3 2.5L40.5 3.4L36.4 4.2L32.0 4.9L27.4 5.5L22.7 6.0L17.8 6.4L12.8 6.7L7.7 6.9L2.6 7.0L-2.6 7.0L-7.7 6.9L-12.8 6.7L-17.8 6.4L-22.7 6.0L-27.4 5.5L-32.0 4.9L-36.4 4.2L-40.5 3.4L-44.3 2.5L-47.9 1.6L-51.2 0.6L-54.1 -0.4L-56.7 -1.6L-58.9 -2.7L-60.7 -3.9L-62.1 -5.2L-63.2 -6.4L-63.8 -7.7L-64.0 -9.0L-64.0 9.0L-63.8 10.3L-63.2 11.6L-62.1 12.8L-60.7 14.1L-58.9 15.3L-56.7 16.4L-54.1 17.6L-51.2 18.6L-47.9 19.6L-44.3 20.5L-40.5 21.4L-36.4 22.2L-32.0 22.9L-27.4 23.5L-22.7 24.0L-17.8 24.4L-12.8 24.7L-7.7 24.9L-2.6 25.0L2.6 25.0L7.7 24.9L12.8 24.7L17.8 24.4L22.7 24.0L27.4 23.5L32.0 22.9L36.4 22.2L40.5 21.4L44.3 20.5L47.9 19.6L51.2 18.6L54.1 17.6L56.7 16.4L58.9 15.3L60.7 14.1L62.1 12.8L63.2 11.6L63.8 10.3L64.0 9.0Z" fill="url(#g-silver)" stroke="#7E848C" stroke-width="0.8" stroke-linejoin="round"/><path d="M60.8 9.3L66.8 -6.7" fill="none" stroke="#7E848C" stroke-width=".9" stroke-opacity=".8"/><path d="M59.7 -4.8L65.7 11.2" fill="none" stroke="#7E848C" stroke-width=".9" stroke-opacity=".8"/><path d="M57.8 13.0L63.8 -3.0" fill="none" stroke="#7E848C" stroke-width=".9" stroke-opacity=".8"/><path d="M55.0 -1.2L61.0 14.8" fill="none" stroke="#7E848C" stroke-width=".9" stroke-opacity=".8"/><path d="M51.3 16.5L57.3 0.5" fill="none" stroke="#7E848C" stroke-width=".9" stroke-opacity=".8"/><path d="M46.9 2.0L52.9 18.0" fill="none" stroke="#7E848C" stroke-width=".9" stroke-opacity=".8"/><path d="M41.8 19.4L47.8 3.4" fill="none" stroke="#7E848C" stroke-width=".9" stroke-opacity=".8"/><path d="M36.0 4.7L42.0 20.7" fill="none" stroke="#7E848C" stroke-width=".9" stroke-opacity=".8"/><path d="M29.7 21.8L35.7 5.8" fill="none" stroke="#7E848C" stroke-width=".9" stroke-opacity=".8"/><path d="M22.9 6.6L28.9 22.6" fill="none" stroke="#7E848C" stroke-width=".9" stroke-opacity=".8"/><path d="M15.8 23.3L21.8 7.3" fill="none" stroke="#7E848C" stroke-width=".9" stroke-opacity=".8"/><path d="M8.4 7.7L14.4 23.7" fill="none" stroke="#7E848C" stroke-width=".9" stroke-opacity=".8"/><path d="M0.8 24.0L6.8 8.0" fill="none" stroke="#7E848C" stroke-width=".9" stroke-opacity=".8"/><path d="M-6.8 8.0L-0.8 24.0" fill="none" stroke="#7E848C" stroke-width=".9" stroke-opacity=".8"/><path d="M-14.4 23.7L-8.4 7.7" fill="none" stroke="#7E848C" stroke-width=".9" stroke-opacity=".8"/><path d="M-21.8 7.3L-15.8 23.3" fill="none" stroke="#7E848C" stroke-width=".9" stroke-opacity=".8"/><path d="M-28.9 22.6L-22.9 6.6" fill="none" stroke="#7E848C" stroke-width=".9" stroke-opacity=".8"/><path d="M-35.7 5.8L-29.7 21.8" fill="none" stroke="#7E848C" stroke-width=".9" stroke-opacity=".8"/><path d="M-42.0 20.7L-36.0 4.7" fill="none" stroke="#7E848C" stroke-width=".9" stroke-opacity=".8"/><path d="M-47.8 3.4L-41.8 19.4" fill="none" stroke="#7E848C" stroke-width=".9" stroke-opacity=".8"/><path d="M-52.9 18.0L-46.9 2.0" fill="none" stroke="#7E848C" stroke-width=".9" stroke-opacity=".8"/><path d="M-57.3 0.5L-51.3 16.5" fill="none" stroke="#7E848C" stroke-width=".9" stroke-opacity=".8"/><path d="M-61.0 14.8L-55.0 -1.2" fill="none" stroke="#7E848C" stroke-width=".9" stroke-opacity=".8"/><path d="M-63.8 -3.0L-57.8 13.0" fill="none" stroke="#7E848C" stroke-width=".9" stroke-opacity=".8"/><path d="M-65.7 11.2L-59.7 -4.8" fill="none" stroke="#7E848C" stroke-width=".9" stroke-opacity=".8"/><path d="M-66.8 -6.7L-60.8 9.3" fill="none" stroke="#7E848C" stroke-width=".9" stroke-opacity=".8"/></g></svg>