<svg xmlns="http://www.w3.org/2000/svg" viewBox="0 0 1200 1500" width="1200" height="1500">
<defs>
  <linearGradient id="g-gold" x1="0" y1="0" x2="1" y2="1"><stop offset="0" stop-color="#EED9A0"/><stop offset=".45" stop-color="#C9A253"/><stop offset="1" stop-color="#8E6E2E"/></linearGradient>
  <linearGradient id="g-silver" x1="0" y1="0" x2="1" y2="1"><stop offset="0" stop-color="#F1F2F4"/><stop offset=".5" stop-color="#B9BDC4"/><stop offset="1" stop-color="#7E848C"/></linearGradient>
  <radialGradient id="g-pearl" cx=".35" cy=".3" r=".8"><stop offset="0" stop-color="#FFFFFF"/><stop offset=".6" stop-color="#F3ECE2"/><stop offset="1" stop-color="#D6CBBE"/></radialGradient>
  <radialGradient id="g-violet" cx=".35" cy=".3" r=".8"><stop offset="0" stop-color="#B58BD3"/><stop offset=".55" stop-color="#6E3C8C"/><stop offset="1" stop-color="#3B1650"/></radialGradient>
  <radialGradient id="g-lilac" cx=".35" cy=".3" r=".8"><stop offset="0" stop-color="#EDE2F4"/><stop offset=".6" stop-color="#B9A4C8"/><stop offset="1" stop-color="#8E77A3"/></radialGradient>
  <radialGradient id="g-plum" cx=".35" cy=".3" r=".8"><stop offset="0" stop-color="#8A5A9E"/><stop offset=".6" stop-color="#4B1D5C"/><stop offset="1" stop-color="#2A0F35"/></radialGradient>
  <radialGradient id="g-shadow" cx=".5" cy=".5" r=".5"><stop offset="0" stop-color="#21102A" stop-opacity=".18"/><stop offset="1" stop-color="#21102A" stop-opacity="0"/></radialGradient>
  <filter id="grain" x="0" y="0" width="100%" height="100%"><feTurbulence type="fractalNoise" baseFrequency=".9" numOctaves="2" stitchTiles="stitch"/><feColorMatrix values="0 0 0 0 .13  0 0 0 0 .06  0 0 0 0 .16  0 0 0 .07 0"/></filter>
  <pattern id="grid" width="40" height="40" patternUnits="userSpaceOnUse"><path d="M40 0H0V40" fill="none" stroke="#B9A4C8" stroke-opacity=".35" stroke-width="1"/></pattern>
</defs><rect x="-2000" y="-2000" width="6000" height="6000" fill="#FCFAF6"/><path d="M160 1500V616.8C160 340.8 459.20000000000005 216.60000000000002 600 120C740.8000000000001 216.60000000000002 1040 340.8 1040 616.8V1500Z" fill="#B9A4C8" opacity=".8"/><g transform="translate(0 0) scale(1.5)"><g fill="none" stroke="#4B1D5C" stroke-width="1.8" stroke-linecap="round" stroke-linejoin="round">
    <path d="M345 560C335 500 330 450 335 400C320 380 290 350 285 320C283 305 298 300 308 312C325 335 345 360 360 370C358 300 360 230 368 190C372 175 390 176 392 192C396 240 395 300 398 350C400 280 405 200 410 165C414 150 432 152 433 168C436 210 432 290 432 350C436 290 444 220 450 195C454 182 470 186 470 200C468 250 462 310 460 360C468 320 480 280 488 262C494 252 507 258 505 272C498 320 482 380 470 420C465 470 458 520 455 560"/>
    <path d="M345 560C340 700 330 850 322 1040"/><path d="M455 560C465 700 475 850 482 1040"/>
    <path d="M372 400C384 412 400 416 414 412" stroke-opacity=".5"/><path d="M412 196C416 204 426 204 430 196" stroke-opacity=".5"/></g><g transform="translate(400 610) scale(1.1)"><path d="M60.0 -11.0L59.8 -9.7L59.2 -8.4L58.3 -7.2L56.9 -5.9L55.2 -4.7L53.1 -3.6L50.7 -2.4L48.0 -1.4L44.9 -0.4L41.6 0.5L37.9 1.4L34.1 2.2L30.0 2.9L25.7 3.5L21.3 4.0L16.7 4.4L12.0 4.7L7.2 4.9L2.4 5.0L-2.4 5.0L-7.2 4.9L-12.0 4.7L-16.7 4.4L-21.3 4.0L-25.7 3.5L-30.0 2.9L-34.1 2.2L-37.9 1.4L-41.6 0.5L-44.9 -0.4L-48.0 -1.4L-50.7 -2.4L-53.1 -3.6L-55.2 -4.7L-56.9 -5.9L-58.3 -7.2L-59.2 -8.4L-59.8 -9.7L-60.0 -11.0L-60.0 11.0L-59.8 12.3L-59.2 13.6L-58.3 14.8L-56.9 16.1L-55.2 17.3L-53.1 18.4L-50.7 19.6L-48.0 20.6L-44.9 21.6L-41.6 22.5L-37.9 23.4L-34.1 24.2L-30.0 24.9L-25.7 25.5L-21.3 26.0L-16.7 26.4L-12.0 26.7L-7.2 26.9L-2.4 27.0L2.4 27.0L7.2 26.9L12.0 26.7L16.7 26.4L21.3 26.0L25.7 25.5L30.0 24.9L34.1 24.2L37.9 23.4L41.6 22.5L44.9 21.6L48.0 20.6L50.7 19.6L53.1 18.4L55.2 17.3L56.9 16.1L58.3 14.8L59.2 13.6L59.8 12.3L60.0 11.0Z" fill="url(#g-gold)" stroke="#8E6E2E" stroke-width="0.8" stroke-linejoin="round"/><circle cx="59.3" cy="2.4" r="4" fill="none" stroke="#8E6E2E" stroke-width="1"/><circle cx="59.3" cy="2.4" r="1.4" fill="#EED9A0" stroke="none"/><path d="M47.5 15.7V5.7Q52.5 -2.3 57.5 5.7V15.7" fill="none" stroke="#8E6E2E" stroke-width="1"/><circle cx="39.1" cy="12.1" r="4" fill="none" stroke="#8E6E2E" stroke-width="1"/><circle cx="39.1" cy="12.1" r="1.4" fill="#EED9A0" stroke="none"/><path d="M15.9 23.0V13.0Q20.9 5.0 25.9 13.0V23.0" fill="none" stroke="#8E6E2E" stroke-width="1"/><circle cx="0.0" cy="16.0" r="4" fill="none" stroke="#8E6E2E" stroke-width="1"/><circle cx="0.0" cy="16.0" r="1.4" fill="#EED9A0" stroke="none"/><path d="M-25.9 23.0V13.0Q-20.9 5.0 -15.9 13.0V23.0" fill="none" stroke="#8E6E2E" stroke-width="1"/><circle cx="-39.1" cy="12.1" r="4" fill="none" stroke="#8E6E2E" stroke-width="1"/><circle cx="-39.1" cy="12.1" r="1.4" fill="#EED9A0" stroke="none"/><path d="M-57.5 15.7V5.7Q-52.5 -2.3 -47.5 5.7V15.7" fill="none" stroke="#8E6E2E" stroke-width="1"/><circle cx="-59.3" cy="2.4" r="4" fill="none" stroke="#8E6E2E" stroke-width="1"/><circle cx="-59.3" cy="2.4" r="1.4" fill="#EED9A0" stroke="none"/></g></g><rect x="-2000" y="-2000" width="6000" height="6000" filter="url(#grain)"/></svg>