<svg xmlns="http://www.w3.org/2000/svg" viewBox="0 0 1200 1500" width="1200" height="1500">
<defs>
  <linearGradient id="g-gold" x1="0" y1="0" x2="1" y2="1"><stop offset="0" stop-color="#EED9A0"/><stop offset=".45" stop-color="#C9A253"/><stop offset="1" stop-color="#8E6E2E"/></linearGradient>
  <linearGradient id="g-silver" x1="0" y1="0" x2="1" y2="1"><stop offset="0" stop-color="#F1F2F4"/><stop offset=".5" stop-color="#B9BDC4"/><stop offset="1" stop-color="#7E848C"/></linearGradient>
  <radialGradient id="g-pearl" cx=".35" cy=".3" r=".8"><stop offset="0" stop-color="#FFFFFF"/><stop offset=".6" stop-color="#F3ECE2"/><stop offset="1" stop-color="#D6CBBE"/></radialGradient>
  <radialGradient id="g-violet" cx=".35" cy=".3" r=".8"><stop offset="0" stop-color="#B58BD3"/><stop offset=".55" stop-color="#6E3C8C"/><stop offset="1" stop-color="#3B1650"/></radialGradient>
  <radialGradient id="g-lilac" cx=".35" cy=".3" r=".8"><stop offset="0" stop-color="#EDE2F4"/><stop offset=".6" stop-color="#B9A4C8"/><stop offset="1" stop-color="#8E77A3"/></radialGradient>
  <radialGradient id="g-plum" cx=".35" cy=".3" r=".8"><stop offset="0" stop-color="#8A5A9E"/><stop offset=".6" stop-color="#4B1D5C"/><stop offset="1" stop-color="#2A0F35"/></radialGradient>
  <radialGradient id="g-shadow" cx=".5" cy=".5" r=".5"><stop offset="0" stop-color="#21102A" stop-opacity=".18"/><stop offset="1" stop-color="#21102A" stop-opacity="0"/></radialGradient>
  <filter id="grain" x="0" y="0" width="100%" height="100%"><feTurbulence type="fractalNoise" baseFrequency=".9" numOctaves="2" stitchTiles="stitch"/><feColorMatrix values="0 0 0 0 .13  0 0 0 0 .06  0 0 0 0 .16  0 0 0 .07 0"/></filter>
  <pattern id="grid" width="40" height="40" patternUnits="userSpaceOnUse"><path d="M40 0H0V40" fill="none" stroke="#B9A4C8" stroke-opacity=".35" stroke-width="1"/></pattern>
</defs><rect x="-2000" y="-2000" width="6000" height="6000" fill="#E9E0EE"/><path d="M0 60H1200" stroke="#B9A4C8" stroke-width="1" opacity=".35"/><path d="M0 102H1200" stroke="#B9A4C8" stroke-width="1" opacity=".35"/><path d="M0 144H1200" stroke="#B9A4C8" stroke-width="1" opacity=".35"/><path d="M0 186H1200" stroke="#B9A4C8" stroke-width="1" opacity=".35"/><path d="M0 228H1200" stroke="#B9A4C8" stroke-width="1" opacity=".35"/><path d="M0 270H1200" stroke="#B9A4C8" stroke-width="1" opacity=".35"/><path d="M0 312H1200" stroke="#B9A4C8" stroke-width="1" opacity=".35"/><path d="M0 354H1200" stroke="#B9A4C8" stroke-width="1" opacity=".35"/><path d="M0 396H1200" stroke="#B9A4C8" stroke-width="1" opacity=".35"/><path d="M0 438H1200" stroke="#B9A4C8" stroke-width="1" opacity=".35"/><path d="M0 480H1200" stroke="#B9A4C8" stroke-width="1" opacity=".35"/><path d="M0 522H1200" stroke="#B9A4C8" stroke-width="1" opacity=".35"/><path d="M0 564H1200" stroke="#B9A4C8" stroke-width="1" opacity=".35"/><path d="M0 606H1200" stroke="#B9A4C8" stroke-width="1" opacity=".35"/><path d="M0 648H1200" stroke="#B9A4C8" stroke-width="1" opacity=".35"/><path d="M0 690H1200" stroke="#B9A4C8" stroke-width="1" opacity=".35"/><path d="M0 732H1200" stroke="#B9A4C8" stroke-width="1" opacity=".35"/><path d="M0 774H1200" stroke="#B9A4C8" stroke-width="1" opacity=".35"/><path d="M0 816H1200" stroke="#B9A4C8" stroke-width="1" opacity=".35"/><path d="M0 858H1200" stroke="#B9A4C8" stroke-width="1" opacity=".35"/><path d="M0 900H1200" stroke="#B9A4C8" stroke-width="1" opacity=".35"/><path d="M0 942H1200" stroke="#B9A4C8" stroke-width="1" opacity=".35"/><path d="M0 984H1200" stroke="#B9A4C8" stroke-width="1" opacity=".35"/><path d="M0 1026H1200" stroke="#B9A4C8" stroke-width="1" opacity=".35"/><path d="M0 1068H1200" stroke="#B9A4C8" stroke-width="1" opacity=".35"/><path d="M0 1110H1200" stroke="#B9A4C8" stroke-width="1" opacity=".35"/><path d="M0 1152H1200" stroke="#B9A4C8" stroke-width="1" opacity=".35"/><path d="M0 1194H1200" stroke="#B9A4C8" stroke-width="1" opacity=".35"/><path d="M0 1236H1200" stroke="#B9A4C8" stroke-width="1" opacity=".35"/><path d="M0 1278H1200" stroke="#B9A4C8" stroke-width="1" opacity=".35"/><path d="M0 1320H1200" stroke="#B9A4C8" stroke-width="1" opacity=".35"/><path d="M0 1362H1200" stroke="#B9A4C8" stroke-width="1" opacity=".35"/><path d="M0 1404H1200" stroke="#B9A4C8" stroke-width="1" opacity=".35"/><path d="M0 1446H1200" stroke="#B9A4C8" stroke-width="1" opacity=".35"/><path d="M0 1488H1200" stroke="#B9A4C8" stroke-width="1" opacity=".35"/><path d="M0 1530H1200" stroke="#B9A4C8" stroke-width="1" opacity=".35"/><path d="M150 0V1500" stroke="#6E3C8C" stroke-width="1.5" opacity=".45"/><path d="M240 1500V642.4C240 374.4 484.8 253.8 600 160C715.2 253.8 960 374.4 960 642.4V1500Z" fill="#FCFAF6" opacity=".9"/><g transform="scale(1.5)"><g fill="none" stroke="#4B1D5C" stroke-width="1.8" stroke-linecap="round" stroke-linejoin="round">
    <path d="M250 -20C268 80 320 150 400 160C480 150 532 80 550 -20"/>
    <path d="M330 140C335 220 330 300 318 370C300 430 220 460 80 480C40 486 10 492 -40 502"/>
    <path d="M470 140C465 220 470 300 482 370C500 430 580 460 720 480C760 486 790 492 840 502"/>
    <path d="M210 520C280 505 340 520 385 548"/><path d="M590 520C520 505 460 520 415 548"/>
    <path d="M385 548C395 556 405 556 415 548"/>
    <path d="M352 250C362 330 380 400 394 470" stroke-opacity=".45"/><path d="M448 250C438 330 420 400 406 470" stroke-opacity=".45"/>
    <path d="M226 -20C216 120 196 260 140 430"/><path d="M574 -20C584 120 604 260 660 430"/>
    <path d="M380 92C392 100 408 100 420 92" stroke-opacity=".6"/></g><g transform="translate(400 520)"><path d="M-80 -142Q0 142 80 -142" fill="none" stroke="#C9A253" stroke-width="1.8" stroke-linecap="round"/>
      <rect x="-17" y="-1" width="34" height="5" rx="2.5" fill="url(#g-gold)" stroke="#8E6E2E" stroke-width="0.8" stroke-linejoin="round"/></g></g><rect x="-2000" y="-2000" width="6000" height="6000" filter="url(#grain)"/></svg>