<svg xmlns="http://www.w3.org/2000/svg" viewBox="330 640 540 675" width="1200" height="1500">
<defs>
  <linearGradient id="g-gold" x1="0" y1="0" x2="1" y2="1"><stop offset="0" stop-color="#EED9A0"/><stop offset=".45" stop-color="#C9A253"/><stop offset="1" stop-color="#8E6E2E"/></linearGradient>
  <linearGradient id="g-silver" x1="0" y1="0" x2="1" y2="1"><stop offset="0" stop-color="#F1F2F4"/><stop offset=".5" stop-color="#B9BDC4"/><stop offset="1" stop-color="#7E848C"/></linearGradient>
  <radialGradient id="g-pearl" cx=".35" cy=".3" r=".8"><stop offset="0" stop-color="#FFFFFF"/><stop offset=".6" stop-color="#F3ECE2"/><stop offset="1" stop-color="#D6CBBE"/></radialGradient>
  <radialGradient id="g-violet" cx=".35" cy=".3" r=".8"><stop offset="0" stop-color="#B58BD3"/><stop offset=".55" stop-color="#6E3C8C"/><stop offset="1" stop-color="#3B1650"/></radialGradient>
  <radialGradient id="g-lilac" cx=".35" cy=".3" r=".8"><stop offset="0" stop-color="#EDE2F4"/><stop offset=".6" stop-color="#B9A4C8"/><stop offset="1" stop-color="#8E77A3"/></radialGradient>
  <radialGradient id="g-plum" cx=".35" cy=".3" r=".8"><stop offset="0" stop-color="#8A5A9E"/><stop offset=".6" stop-color="#4B1D5C"/><stop offset="1" stop-color="#2A0F35"/></radialGradient>
  <radialGradient id="g-shadow" cx=".5" cy=".5" r=".5"><stop offset="0" stop-color="#21102A" stop-opacity=".18"/><stop offset="1" stop-color="#21102A" stop-opacity="0"/></radialGradient>
  <filter id="grain" x="0" y="0" width="100%" height="100%"><feTurbulence type="fractalNoise" baseFrequency=".9" numOctaves="2" stitchTiles="stitch"/><feColorMatrix values="0 0 0 0 .13  0 0 0 0 .06  0 0 0 0 .16  0 0 0 .07 0"/></filter>
  <pattern id="grid" width="40" height="40" patternUnits="userSpaceOnUse"><path d="M40 0H0V40" fill="none" stroke="#B9A4C8" stroke-opacity=".35" stroke-width="1"/></pattern>
</defs><rect x="-2000" y="-2000" width="6000" height="6000" fill="#F7F3EC"/><path d="M230 1500V648.8C230 382.8 481.6 263.1 600 170C718.4000000000001 263.1 970 382.8 970 648.8V1500Z" fill="#E9E0EE" opacity=".55"/><ellipse cx="600" cy="1230" rx="330" ry="40" fill="url(#g-shadow)"/><g transform="translate(600 760) scale(3.8)"><circle cx="-110.0" cy="0.0" r="6.2" fill="url(#g-gold)" stroke="#8E6E2E" stroke-width="0.8" stroke-linejoin="round" opacity=".55"/><circle cx="-107.6" cy="-9.6" r="6.2" fill="url(#g-lilac)" stroke="#2A0F35" stroke-opacity=".5" stroke-width="0.6" opacity=".55"/><circle cx="-100.5" cy="-18.7" r="6.2" fill="url(#g-gold)" stroke="#8E6E2E" stroke-width="0.8" stroke-linejoin="round" opacity=".55"/><circle cx="-89.0" cy="-27.0" r="6.2" fill="url(#g-gold)" stroke="#8E6E2E" stroke-width="0.8" stroke-linejoin="round" opacity=".55"/><circle cx="-73.6" cy="-34.2" r="6.2" fill="url(#g-lilac)" stroke="#2A0F35" stroke-opacity=".5" stroke-width="0.6" opacity=".55"/><circle cx="-55.0" cy="-39.8" r="6.2" fill="url(#g-gold)" stroke="#8E6E2E" stroke-width="0.8" stroke-linejoin="round" opacity=".55"/><circle cx="-34.0" cy="-43.7" r="6.2" fill="url(#g-gold)" stroke="#8E6E2E" stroke-width="0.8" stroke-linejoin="round" opacity=".55"/><circle cx="-11.5" cy="-45.7" r="6.2" fill="url(#g-lilac)" stroke="#2A0F35" stroke-opacity=".5" stroke-width="0.6" opacity=".55"/><circle cx="11.5" cy="-45.7" r="6.2" fill="url(#g-lilac)" stroke="#2A0F35" stroke-opacity=".5" stroke-width="0.6" opacity=".55"/><circle cx="34.0" cy="-43.7" r="6.2" fill="url(#g-gold)" stroke="#8E6E2E" stroke-width="0.8" stroke-linejoin="round" opacity=".55"/><circle cx="55.0" cy="-39.8" r="6.2" fill="url(#g-lilac)" stroke="#2A0F35" stroke-opacity=".5" stroke-width="0.6" opacity=".55"/><circle cx="73.6" cy="-34.2" r="6.2" fill="url(#g-lilac)" stroke="#2A0F35" stroke-opacity=".5" stroke-width="0.6" opacity=".55"/><circle cx="89.0" cy="-27.0" r="6.2" fill="url(#g-lilac)" stroke="#2A0F35" stroke-opacity=".5" stroke-width="0.6" opacity=".55"/><circle cx="100.5" cy="-18.7" r="6.2" fill="url(#g-gold)" stroke="#8E6E2E" stroke-width="0.8" stroke-linejoin="round" opacity=".55"/><circle cx="107.6" cy="-9.6" r="6.2" fill="url(#g-gold)" stroke="#8E6E2E" stroke-width="0.8" stroke-linejoin="round" opacity=".55"/><circle cx="110.0" cy="-0.0" r="6.2" fill="url(#g-lilac)" stroke="#2A0F35" stroke-opacity=".5" stroke-width="0.6" opacity=".55"/><circle cx="110.0" cy="0.0" r="6.2" fill="url(#g-lilac)" stroke="#2A0F35" stroke-opacity=".5" stroke-width="0.6" /><circle cx="107.9" cy="9.0" r="6.2" fill="url(#g-gold)" stroke="#8E6E2E" stroke-width="0.8" stroke-linejoin="round" /><circle cx="101.6" cy="17.6" r="6.2" fill="url(#g-lilac)" stroke="#2A0F35" stroke-opacity=".5" stroke-width="0.6" /><circle cx="91.5" cy="25.6" r="6.2" fill="url(#g-gold)" stroke="#8E6E2E" stroke-width="0.8" stroke-linejoin="round" /><circle cx="77.8" cy="32.5" r="6.2" fill="url(#g-lilac)" stroke="#2A0F35" stroke-opacity=".5" stroke-width="0.6" /><circle cx="61.1" cy="38.2" r="6.2" fill="url(#g-lilac)" stroke="#2A0F35" stroke-opacity=".5" stroke-width="0.6" /><circle cx="42.1" cy="42.5" r="6.2" fill="url(#g-gold)" stroke="#8E6E2E" stroke-width="0.8" stroke-linejoin="round" /><circle cx="21.5" cy="45.1" r="6.2" fill="url(#g-gold)" stroke="#8E6E2E" stroke-width="0.8" stroke-linejoin="round" /><circle cx="0.0" cy="46.0" r="6.2" fill="url(#g-lilac)" stroke="#2A0F35" stroke-opacity=".5" stroke-width="0.6" /><circle cx="-21.5" cy="45.1" r="6.2" fill="url(#g-lilac)" stroke="#2A0F35" stroke-opacity=".5" stroke-width="0.6" /><circle cx="-42.1" cy="42.5" r="6.2" fill="url(#g-lilac)" stroke="#2A0F35" stroke-opacity=".5" stroke-width="0.6" /><circle cx="-61.1" cy="38.2" r="6.2" fill="url(#g-lilac)" stroke="#2A0F35" stroke-opacity=".5" stroke-width="0.6" /><circle cx="-77.8" cy="32.5" r="6.2" fill="url(#g-lilac)" stroke="#2A0F35" stroke-opacity=".5" stroke-width="0.6" /><circle cx="-91.5" cy="25.6" r="6.2" fill="url(#g-lilac)" stroke="#2A0F35" stroke-opacity=".5" stroke-width="0.6" /><circle cx="-101.6" cy="17.6" r="6.2" fill="url(#g-gold)" stroke="#8E6E2E" stroke-width="0.8" stroke-linejoin="round" /><circle cx="-107.9" cy="9.0" r="6.2" fill="url(#g-gold)" stroke="#8E6E2E" stroke-width="0.8" stroke-linejoin="round" /><circle cx="-110.0" cy="0.0" r="6.2" fill="url(#g-lilac)" stroke="#2A0F35" stroke-opacity=".5" stroke-width="0.6" /></g><rect x="-2000" y="-2000" width="6000" height="6000" filter="url(#grain)"/></svg>